<?xml version="1.0" standalone="no"?><!DOCTYPE svg PUBLIC "-//W3C//DTD SVG 1.1//EN" "http://www.w3.org/Graphics/SVG/1.1/DTD/svg11.dtd"><svg t="1611547276150" class="icon" viewBox="0 0 1024 1024" version="1.1" xmlns="http://www.w3.org/2000/svg" p-id="1156" xmlns:xlink="http://www.w3.org/1999/xlink" width="200" height="200"><defs><style type="text/css"></style></defs><path d="M512 163.84a245.80096 245.80096 0 0 1 243.38432 211.39456A266.24 266.24 0 0 1 696.32 901.12h-327.68c-3.35872 0-6.7584-0.08192-10.07616-0.2048A286.72 286.72 0 0 1 277.2992 336.4864 245.84192 245.84192 0 0 1 512 163.84z m0 81.92a165.76512 165.76512 0 0 0-57.67168 10.4448 162.73408 162.73408 0 0 0-28.672 14.1312l-3.8912 2.49856a163.71712 163.71712 0 0 0-25.3952 20.6848l-1.8432 1.88416a164.78208 164.78208 0 0 0-3.15392 3.35872l-2.70336 2.99008a165.6832 165.6832 0 0 0-19.0464 26.74688 162.85696 162.85696 0 0 0-21.2992 72.9088L348.16 409.6a204.8 204.8 0 0 0 0 409.6h200.62208v0.08192L696.32 819.2h20.48v-1.14688a184.32 184.32 0 0 0 151.67488-249.20064l-0.2048-0.53248a183.0912 183.0912 0 0 0-26.74688-46.98112l-1.6384-2.048a185.38496 185.38496 0 0 0-68.4032-52.75648l-2.048-0.90112a183.37792 183.37792 0 0 0-7.5776-3.072l-4.75136-1.72032-3.8912-1.35168-0.53248-0.16384-6.02112-1.80224a184.44288 184.44288 0 0 0-76.55424-5.12 164.70016 164.70016 0 0 0 2.78528-73.80992L670.67904 368.64a162.57024 162.57024 0 0 0-3.76832-12.53376l-0.69632-1.92512-0.32768-0.90112-2.17088-5.65248-0.28672-0.69632a162.77504 162.77504 0 0 0-22.15936-38.01088l-1.2288-1.55648a164.57728 164.57728 0 0 0-3.15392-3.80928l-2.78528-3.19488a164.61824 164.61824 0 0 0-4.66944-4.99712l-3.19488-3.19488-2.62144-2.49856-2.6624-2.4576a164.70016 164.70016 0 0 0-22.15936-16.5888l-3.35872-2.048a163.14368 163.14368 0 0 0-2.21184-1.26976l-4.9152-2.70336-1.72032-0.90112a163.30752 163.30752 0 0 0-11.55072-5.36576l-3.72736-1.51552-3.85024-1.4336a162.69312 162.69312 0 0 0-7.7824-2.58048l-0.36864-0.12288L552.96 250.92096A162.69312 162.69312 0 0 0 512 245.76z m11.63264 147.00544l2.8672 2.33472 81.92 81.92a20.48 20.48 0 0 1-10.97728 34.69312L593.92 512h-40.96V696.32a20.48 20.48 0 0 1-20.48 20.48h-40.96a20.48 20.48 0 0 1-20.48-20.48v-184.32h-40.96a20.48 20.48 0 0 1-16.7936-32.27648l2.29376-2.70336 81.92-81.92a20.48 20.48 0 0 1 26.13248-2.33472z" p-id="1157" fill="#dbdbdb"></path></svg>