<?xml version="1.0" standalone="no"?><!DOCTYPE svg PUBLIC "-//W3C//DTD SVG 1.1//EN" "http://www.w3.org/Graphics/SVG/1.1/DTD/svg11.dtd"><svg t="1611715530350" class="icon" viewBox="0 0 1024 1024" version="1.1" xmlns="http://www.w3.org/2000/svg" p-id="1131" xmlns:xlink="http://www.w3.org/1999/xlink" width="200" height="200"><defs><style type="text/css"></style></defs><path d="M780.4 270.5c-13.1 0-25.8 1.4-38.1 4.1C733.8 155.9 634.9 62.2 514 62.2c-121.3 0-220.5 94.4-228.3 213.7-14-3.6-28.7-5.4-43.8-5.4-98.1 0-177.6 79.5-177.6 177.6S143.9 625.8 242 625.8h1.4v-50H242c-34.1 0-66.2-13.3-90.3-37.4-24.1-24.1-37.4-56.2-37.4-90.3 0-34.1 13.3-66.2 37.4-90.3 24.1-24.1 56.2-37.4 90.3-37.4 10.7 0 21.3 1.3 31.5 3.9l58.3 14.8 3.9-60c2.9-45.2 22.8-87.3 55.9-118.4 33.3-31.3 76.8-48.5 122.5-48.5 45.5 0 88.9 17.1 122.1 48.2 33.1 30.9 53 72.8 56.2 117.7l4.1 57.7 56.5-12.4c9-2 18.2-3 27.4-3 34.1 0 66.2 13.3 90.3 37.4 24.1 24.1 37.4 56.2 37.4 90.3 0 34.1-13.3 66.2-37.4 90.3-24.1 24.1-56.2 37.4-90.3 37.4-1.6 0-3.2 0-4.8-0.1v50c1.6 0 3.2 0.1 4.8 0.1 98.1 0 177.6-79.5 177.6-177.6s-79.5-177.7-177.6-177.7z" fill="#dbdbdb" p-id="1132"></path><path d="M238.7 575.8H367v50H238.7zM658.8 575.8h128.3v50H658.8zM487.1 383.8h50v384h-50z" fill="#dbdbdb" p-id="1133"></path><path d="M512.1 962.4l-210-194.2 33.9-36.8 176.1 162.8 175.2-162.7 34 36.6z" fill="#dbdbdb" p-id="1134"></path></svg>